<svg version="1" xmlns="http://www.w3.org/2000/svg" width="933.333" height="933.333" viewBox="0 0 700.000000 700.000000"><path d="M290 34.2c-6.3 9.4-79.5 118.6-108.5 161.8-25 37.3-30.5 46.5-42 69.7-13.1 26.5-23.8 57.3-28.1 80.3-3.4 18.4-4.2 28.4-3.9 49.5.2 12.1.6 23.8.9 26 4.7 30.4 12.6 54.8 26.3 80.4 5.6 10.6 15.3 26 18.5 29.5 1 1.1 1.8 2.3 1.8 2.7 0 .3 2.5 3.7 5.6 7.5 3 3.8 7 8.7 8.7 10.9 5.6 7.1 33.9 35 43.7 43.2 32 26.6 70.3 51.2 108.5 69.7 12.5 6 18 8.6 18.6 8.6.3 0 .5-145.8.5-324V26h-45.1l-5.5 8.2zm-51.4 260.1c2.8.8 7 2.4 9.5 3.6 20 9.3 33.5 31.7 32.4 54-.4 9.3-.9 11.8-4.2 20.1-8.5 21.5-30.7 36.3-53.4 35.5-10.9-.4-14.5-1.3-23.4-5.5-17.3-8.4-28.2-22.7-32.1-42.5-.7-3.3-.6-15.7.1-20 1-6 5.4-16.3 9.6-22.6 3.5-5.2 14.4-15.9 16.2-15.9.5 0 2.1-.8 3.5-1.9 2.7-1.8 13.6-5.7 18.2-6.4 5.4-.7 18.8.1 23.6 1.6zM382 350c0 178.2.2 324 .5 324s7.4-3.4 15.7-7.5c93.4-45.7 161-104.9 193.3-169.4 8.4-16.7 13-28.9 17.6-46.6 2.3-8.7 2.3-8.9 3.4-15.5.4-2.5.9-5.4 1.1-6.5 2.6-13.5 2.3-47.1-.5-64.5-1.8-10.5-2.1-12-4.6-22.5-8.2-34.8-25.4-72-51.3-111.5-5.3-8-12.1-18.4-15.1-23.2-3.1-4.8-11.9-18.4-19.6-30.3-7.7-11.9-14.4-22.4-15-23.3-.5-.8-3.9-6.1-7.6-11.6-3.6-5.6-10.8-16.7-16-24.8-14-21.9-18.9-29.4-36-56.1-8.7-13.3-17.2-26.6-18.9-29.5l-3.3-5.2H382v324zm135.1-54.6c30.8 10.7 46.7 45.3 34.7 75.6-7.1 18.1-22.8 31.6-41.1 35.5-31.5 6.6-62.2-14.6-68.2-47-3-16.7 3.3-37.1 15.2-49.2 7.6-7.7 9.5-9 16.8-12.5 13.2-6.1 29.2-7 42.6-2.4z"/></svg>